<?xml version="1.0" encoding="UTF-8"?>
<!DOCTYPE svg PUBLIC "-//W3C//DTD SVG 1.1//EN" "http://www.w3.org/Graphics/SVG/1.1/DTD/svg11.dtd">
<svg xmlns="http://www.w3.org/2000/svg" version="1.1" width="280px" height="90px" style="shape-rendering:geometricPrecision; text-rendering:geometricPrecision; image-rendering:optimizeQuality; fill-rule:evenodd; clip-rule:evenodd" xmlns:xlink="http://www.w3.org/1999/xlink">
<g><path style="opacity:0.217" fill="#000000" d="M 126.5,17.5 C 126.5,20.1667 126.5,22.8333 126.5,25.5C 126.5,32.1667 126.5,38.8333 126.5,45.5C 128.833,45.5 131.167,45.5 133.5,45.5C 133.5,41.5 133.5,37.5 133.5,33.5C 136.833,33.5 140.167,33.5 143.5,33.5C 143.5,31.5 143.5,29.5 143.5,27.5C 140.167,27.5 136.833,27.5 133.5,27.5C 133.5,25.8333 133.5,24.1667 133.5,22.5C 137.833,22.5 142.167,22.5 146.5,22.5C 146.5,20.8333 146.5,19.1667 146.5,17.5C 150.654,17.6579 153.487,19.6579 155,23.5C 156.674,19.9114 159.507,18.2447 163.5,18.5C 159.219,27.3929 155.219,36.3929 151.5,45.5C 161.19,45.8318 170.856,45.4984 180.5,44.5C 176.486,35.8072 172.486,27.1405 168.5,18.5C 171.652,17.9586 174.152,18.9586 176,21.5C 177.726,25.9531 179.726,30.2864 182,34.5C 182.76,30.181 183.427,25.8477 184,21.5C 185.992,19.2107 188.492,17.8774 191.5,17.5C 191.5,18.8333 191.5,20.1667 191.5,21.5C 191.5,29.5 191.5,37.5 191.5,45.5C 198.354,45.824 205.021,45.4907 211.5,44.5C 211.5,42.8333 211.5,41.1667 211.5,39.5C 207.167,39.5 202.833,39.5 198.5,39.5C 198.5,37.5 198.5,35.5 198.5,33.5C 202.167,33.5 205.833,33.5 209.5,33.5C 209.5,31.5 209.5,29.5 209.5,27.5C 205.833,27.5 202.167,27.5 198.5,27.5C 198.5,25.8333 198.5,24.1667 198.5,22.5C 202.833,22.5 207.167,22.5 211.5,22.5C 211.5,20.8333 211.5,19.1667 211.5,17.5C 215.468,18.7663 219.468,18.7663 223.5,17.5C 223.5,26.8333 223.5,36.1667 223.5,45.5C 225.5,45.5 227.5,45.5 229.5,45.5C 229.334,40.1563 229.501,34.8229 230,29.5C 232.462,34.7518 234.629,40.0852 236.5,45.5C 238.924,45.8076 241.257,45.4742 243.5,44.5C 241.697,41.0607 240.03,37.5607 238.5,34C 243.646,30.2612 244.646,25.7612 241.5,20.5C 241.5,19.8333 241.5,19.1667 241.5,18.5C 247.977,19.8143 251.477,23.8143 252,30.5C 250.569,40.4621 250.235,50.4621 251,60.5C 250.167,62 249,63.1667 247.5,64C 253.149,71.7524 255.149,80.2524 253.5,89.5C 182.833,89.5 112.167,89.5 41.5,89.5C 24.4517,72.1064 19.9517,51.7731 28,28.5C 33.8211,14.6797 43.9878,5.84636 58.5,2C 79.7724,-3.2878 97.9391,1.87886 113,17.5C 114.667,20.1667 116.333,22.8333 118,25.5C 118.734,20.599 121.568,17.9324 126.5,17.5 Z M 142.5,52.5 C 143.793,54.3635 143.793,56.3635 142.5,58.5C 141.306,56.4844 141.306,54.4844 142.5,52.5 Z"/></g>
<g><path style="opacity:1" fill="#e42b1c" d="M 106.5,21.5 C 115.238,35.8033 115.738,50.47 108,65.5C 105.146,69.3505 101.979,72.8505 98.5,76C 102.833,76.3333 107.167,76.6667 111.5,77C 113.648,79.0749 113.982,81.4082 112.5,84C 96.5,84.6667 80.5,84.6667 64.5,84C 39.5437,74.8907 29.8771,57.3907 35.5,31.5C 39.226,31.2668 41.3927,28.9335 42,24.5C 60.6312,3.50188 80.7979,2.00188 102.5,20C 103.745,20.7914 105.078,21.2914 106.5,21.5 Z"/></g>
<g><path style="opacity:0.253" fill="#020000" d="M 94.5,69.5 C 82.4002,77.7687 69.7335,78.602 56.5,72C 53.3347,69.6653 50.3347,67.1653 47.5,64.5C 40.5308,53.0001 39.6974,41.0001 45,28.5C 56.4171,12.3629 71.2504,8.19625 89.5,16C 104.406,25.7076 109.239,39.2076 104,56.5C 101.711,61.6011 98.544,65.9344 94.5,69.5 Z"/></g>
<g><path style="opacity:0.993" fill="#fc1016" d="M 146.5,17.5 C 146.5,19.1667 146.5,20.8333 146.5,22.5C 142.167,22.5 137.833,22.5 133.5,22.5C 133.5,24.1667 133.5,25.8333 133.5,27.5C 136.833,27.5 140.167,27.5 143.5,27.5C 143.5,29.5 143.5,31.5 143.5,33.5C 140.167,33.5 136.833,33.5 133.5,33.5C 132.518,36.9619 132.185,40.6286 132.5,44.5C 130.833,44.5 129.167,44.5 127.5,44.5C 127.823,37.9779 127.49,31.6446 126.5,25.5C 126.5,22.8333 126.5,20.1667 126.5,17.5C 133.167,16.1667 139.833,16.1667 146.5,17.5 Z"/></g>
<g><path style="opacity:0.994" fill="#fb1116" d="M 211.5,17.5 C 211.5,19.1667 211.5,20.8333 211.5,22.5C 207.167,22.5 202.833,22.5 198.5,22.5C 198.5,24.1667 198.5,25.8333 198.5,27.5C 202.167,27.5 205.833,27.5 209.5,27.5C 209.5,29.5 209.5,31.5 209.5,33.5C 205.833,33.5 202.167,33.5 198.5,33.5C 198.5,35.5 198.5,37.5 198.5,39.5C 202.833,39.5 207.167,39.5 211.5,39.5C 211.5,41.1667 211.5,42.8333 211.5,44.5C 205.167,44.5 198.833,44.5 192.5,44.5C 192.825,36.6484 192.492,28.9818 191.5,21.5C 191.5,20.1667 191.5,18.8333 191.5,17.5C 198.167,16.1667 204.833,16.1667 211.5,17.5 Z"/></g>
<g><path style="opacity:1" fill="#ff2c33" d="M 223.5,17.5 C 229.496,16.0218 235.496,16.3551 241.5,18.5C 241.5,19.1667 241.5,19.8333 241.5,20.5C 237.278,20.2627 233.111,20.596 229,21.5C 227.019,20.3498 225.186,19.0165 223.5,17.5 Z"/></g>
<g><path style="opacity:0.991" fill="#f6040c" d="M 223.5,17.5 C 225.186,19.0165 227.019,20.3498 229,21.5C 233.111,20.596 237.278,20.2627 241.5,20.5C 244.646,25.7612 243.646,30.2612 238.5,34C 240.03,37.5607 241.697,41.0607 243.5,44.5C 241.257,45.4742 238.924,45.8076 236.5,45.5C 234.629,40.0852 232.462,34.7518 230,29.5C 229.501,34.8229 229.334,40.1563 229.5,45.5C 227.5,45.5 225.5,45.5 223.5,45.5C 223.5,36.1667 223.5,26.8333 223.5,17.5 Z"/></g>
<g><path style="opacity:1" fill="#ec4235" d="M 106.5,21.5 C 105.078,21.2914 103.745,20.7914 102.5,20C 80.7979,2.00188 60.6312,3.50188 42,24.5C 41.3927,28.9335 39.226,31.2668 35.5,31.5C 46.0722,8.21626 63.7389,0.0495892 88.5,7C 95.8951,10.2412 101.895,15.0745 106.5,21.5 Z"/></g>
<g><path style="opacity:0.239" fill="#1a0400" d="M 233.5,22.5 C 236.487,22.9478 237.487,24.4478 236.5,27C 234.227,26.6834 233.227,25.1834 233.5,22.5 Z"/></g>
<g><path style="opacity:0.999" fill="#f60c13" d="M 168.5,18.5 C 172.486,27.1405 176.486,35.8072 180.5,44.5C 170.856,45.4984 161.19,45.8318 151.5,45.5C 155.219,36.3929 159.219,27.3929 163.5,18.5C 165.199,15.849 166.866,15.849 168.5,18.5 Z"/></g>
<g><path style="opacity:1" fill="#e13122" d="M 70.5,22.5 C 76.6295,21.5548 80.2962,24.0548 81.5,30C 79.3698,37.4788 74.8698,39.3121 68,35.5C 64.5825,30.3391 65.4158,26.0058 70.5,22.5 Z"/></g>
<g><path style="opacity:0.564" fill="#120200" d="M 165.5,29.5 C 168.207,32.2466 169.873,35.5799 170.5,39.5C 167.15,39.665 163.817,39.4983 160.5,39C 162.307,35.8855 163.973,32.7188 165.5,29.5 Z"/></g>
<g><path style="opacity:0.559" fill="#980104" d="M 126.5,25.5 C 127.49,31.6446 127.823,37.9779 127.5,44.5C 129.167,44.5 130.833,44.5 132.5,44.5C 132.185,40.6286 132.518,36.9619 133.5,33.5C 133.5,37.5 133.5,41.5 133.5,45.5C 131.167,45.5 128.833,45.5 126.5,45.5C 126.5,38.8333 126.5,32.1667 126.5,25.5 Z"/></g>
<g><path style="opacity:1" fill="#ee4b3f" d="M 65.5,40.5 C 61.432,43.0893 57.432,43.0893 53.5,40.5C 57.3211,35.2962 61.3211,35.2962 65.5,40.5 Z"/></g>
<g><path style="opacity:1" fill="#f14c40" d="M 94.5,40.5 C 90.5,43.1667 86.5,43.1667 82.5,40.5C 86.4477,35.3619 90.4477,35.3619 94.5,40.5 Z"/></g>
<g><path style="opacity:0.645" fill="#b80205" d="M 191.5,21.5 C 192.492,28.9818 192.825,36.6484 192.5,44.5C 198.833,44.5 205.167,44.5 211.5,44.5C 205.021,45.4907 198.354,45.824 191.5,45.5C 191.5,37.5 191.5,29.5 191.5,21.5 Z"/></g>
<g><path style="opacity:1" fill="#d62618" d="M 53.5,40.5 C 57.432,43.0893 61.432,43.0893 65.5,40.5C 67.4528,50.218 63.7861,53.5513 54.5,50.5C 51.0675,47.2954 50.7342,43.9621 53.5,40.5 Z"/></g>
<g><path style="opacity:1" fill="#d62618" d="M 82.5,40.5 C 86.5,43.1667 90.5,43.1667 94.5,40.5C 96.4528,50.218 92.7861,53.5513 83.5,50.5C 79.999,47.3693 79.6656,44.036 82.5,40.5 Z"/></g>
<g><path style="opacity:1" fill="#df3123" d="M 70.5,51.5 C 78.164,50.6662 81.664,53.9995 81,61.5C 77.7023,66.7739 73.369,67.7739 68,64.5C 67.0296,62.7262 66.1963,60.8928 65.5,59C 66.5892,56.0844 68.2558,53.5844 70.5,51.5 Z"/></g>
<g><path style="opacity:1" fill="#f50a11" d="M 146.5,56.5 C 149.167,56.5 151.833,56.5 154.5,56.5C 153.712,59.4344 153.046,62.4344 152.5,65.5C 153.046,68.5656 153.712,71.5656 154.5,74.5C 151.833,74.5 149.167,74.5 146.5,74.5C 147.288,71.5656 147.954,68.5656 148.5,65.5C 147.954,62.4344 147.288,59.4344 146.5,56.5 Z"/></g>
<g><path style="opacity:0.992" fill="#ee0b11" d="M 183.5,56.5 C 187.833,56.5 192.167,56.5 196.5,56.5C 196.5,57.8333 196.5,59.1667 196.5,60.5C 193.833,60.5 191.167,60.5 188.5,60.5C 188.5,61.5 188.5,62.5 188.5,63.5C 190.5,63.5 192.5,63.5 194.5,63.5C 194.5,64.8333 194.5,66.1667 194.5,67.5C 192.167,67.5 189.833,67.5 187.5,67.5C 187.5,68.5 187.5,69.5 187.5,70.5C 190.5,70.5 193.5,70.5 196.5,70.5C 196.5,71.8333 196.5,73.1667 196.5,74.5C 192.167,74.5 187.833,74.5 183.5,74.5C 183.5,68.5 183.5,62.5 183.5,56.5 Z"/></g>
<g><path style="opacity:0.986" fill="#f10d13" d="M 203.5,56.5 C 206.464,58.4483 209.464,60.4483 212.5,62.5C 214.65,60.8509 216.65,59.0176 218.5,57C 219.448,56.5172 220.448,56.3505 221.5,56.5C 221.5,62.5 221.5,68.5 221.5,74.5C 215.5,74.5 209.5,74.5 203.5,74.5C 203.5,68.5 203.5,62.5 203.5,56.5 Z"/></g>
<g><path style="opacity:0.989" fill="#ef0910" d="M 130.5,56.5 C 133.807,56.0632 136.807,56.7298 139.5,58.5C 139.023,59.4776 138.357,60.3109 137.5,61C 135.08,60.0119 132.747,60.3452 130.5,62C 127.92,64.5444 127.92,67.0444 130.5,69.5C 132.702,70.7797 134.868,70.7797 137,69.5C 140.421,73.1552 139.421,75.1552 134,75.5C 126.445,73.7183 123.445,69.0516 125,61.5C 126.406,59.2563 128.239,57.5897 130.5,56.5 Z"/></g>
<g><path style="opacity:0.987" fill="#f30f15" d="M 161.5,56.5 C 165.402,58.8926 168.902,61.8926 172,65.5C 172.498,62.5184 172.665,59.5184 172.5,56.5C 173.833,56.5 175.167,56.5 176.5,56.5C 176.829,62.5368 176.496,68.5368 175.5,74.5C 172.167,71.8333 169.167,68.8333 166.5,65.5C 165.516,68.4281 165.183,71.4281 165.5,74.5C 164.167,74.5 162.833,74.5 161.5,74.5C 161.5,68.5 161.5,62.5 161.5,56.5 Z"/></g>
<g><path style="opacity:0.306" fill="#0c0100" d="M 207.5,65.5 C 209.229,66.1175 210.729,67.1175 212,68.5C 213.512,67.7433 214.846,66.7433 216,65.5C 216.494,67.1341 216.66,68.8008 216.5,70.5C 213.5,70.5 210.5,70.5 207.5,70.5C 207.5,68.8333 207.5,67.1667 207.5,65.5 Z"/></g>
<g><path style="opacity:0.99" fill="#f20b12" d="M 236.5,56.5 C 240.678,61.6694 244.011,67.5027 246.5,74C 240.167,74.6667 233.833,74.6667 227.5,74C 230.641,68.2183 233.641,62.3849 236.5,56.5 Z"/></g>
<g><path style="opacity:0.289" fill="#0b0100" d="M 236.5,65.5 C 241.097,69.5237 240.43,70.857 234.5,69.5C 235.63,68.3777 236.297,67.0443 236.5,65.5 Z"/></g>
<g><path style="opacity:1" fill="#ee4c40" d="M 47.5,64.5 C 50.3347,67.1653 53.3347,69.6653 56.5,72C 69.7335,78.602 82.4002,77.7687 94.5,69.5C 92.7465,75.2412 88.7465,78.4079 82.5,79C 70.6587,81.499 59.9921,79.1657 50.5,72C 48.6234,69.874 47.6234,67.374 47.5,64.5 Z"/></g>
</svg>
